<mxfile modified="2020-09-11T03:04:07.141Z" host="app.diagrams.net" agent="5.0 (Macintosh)" etag="DRH9n8HU4YAIUW5K0WrA" version="13.6.9" type="github">
  <diagram id="Ht1M8jgEwFfnCIfOTk4-" name="Page-1">
    <mxGraphModel dx="1577" dy="892" grid="1" gridSize="10" guides="1" tooltips="1" connect="1" arrows="1" fold="1" page="1" pageScale="1" pageWidth="1169" pageHeight="827" math="0" shadow="0">
      <root>
        <mxCell id="0" />
        <mxCell id="1" parent="0" />
        <mxCell id="MNTXiv-tasy9yPXh6Dxl-2" value="check" style="rounded=1;whiteSpace=wrap;html=1;" vertex="1" parent="1">
          <mxGeometry x="150" y="140" width="120" height="60" as="geometry" />
        </mxCell>
        <mxCell id="MNTXiv-tasy9yPXh6Dxl-3" value="create" style="rounded=1;whiteSpace=wrap;html=1;" vertex="1" parent="1">
          <mxGeometry x="360" y="140" width="120" height="60" as="geometry" />
        </mxCell>
      </root>
    </mxGraphModel>
  </diagram>
</mxfile>
